<svg width="814" height="725" viewBox="0 0 814 725" fill="none" xmlns="http://www.w3.org/2000/svg">
<path d="M113.5 -334L485.238 -154.269L790.5 -69L509.5 82.5L444.144 117.737C302.949 193.862 184.655 306.327 101.5 443.5V443.5L37.9999 548.25L-25.5003 653L-269.213 448.5L-301.074 495.813L-81.9998 170.5L113.5 -334Z" fill="url(#paint0_linear_1_446)"/>
<path d="M17.5 6.55673e-08C17.5 -0.828427 16.8284 -1.5 16 -1.5C15.1716 -1.5 14.5 -0.828427 14.5 -6.55673e-08L17.5 6.55673e-08ZM14.5 -6.55673e-08L14.5 314L17.5 314L17.5 6.55673e-08L14.5 -6.55673e-08Z" fill="white"/>
<path d="M26.5 4.37115e-08C26.5 -0.552285 26.0523 -1 25.5 -1C24.9477 -1 24.5 -0.552285 24.5 -4.37115e-08L26.5 4.37115e-08ZM24.5 -4.37115e-08L24.5 407L26.5 407L26.5 4.37115e-08L24.5 -4.37115e-08Z" fill="white"/>
<defs>
<linearGradient id="paint0_linear_1_446" x1="337.775" y1="-332.635" x2="-448.536" y2="317.447" gradientUnits="userSpaceOnUse">
<stop stop-color="#00404C"/>
<stop offset="1" stop-color="#08D0B0"/>
</linearGradient>
</defs>
</svg>
