<svg width="21" height="24" viewBox="0 0 21 24" fill="none" xmlns="http://www.w3.org/2000/svg">
<g clip-path="url(#clip0_4_56)">
<g filter="url(#filter0_d_4_56)">
<path d="M9.3625 17.275C9.5375 17.075 9.6215 16.8334 9.6145 16.55C9.6075 16.2667 9.51621 16.025 9.34062 15.825L6.86875 13H16.625C16.8729 13 17.0809 12.904 17.2489 12.712C17.4169 12.52 17.5006 12.2827 17.5 12C17.5 11.7167 17.416 11.479 17.248 11.287C17.08 11.095 16.8723 10.9994 16.625 11H6.86875L9.3625 8.15005C9.5375 7.95005 9.625 7.71238 9.625 7.43705C9.625 7.16172 9.5375 6.92438 9.3625 6.72505C9.1875 6.52505 8.97954 6.42505 8.73862 6.42505C8.49771 6.42505 8.29004 6.52505 8.11562 6.72505L4.1125 11.3C4.025 11.4 3.96287 11.5084 3.92612 11.625C3.88937 11.7417 3.87129 11.8667 3.87187 12C3.87187 12.1334 3.89025 12.2584 3.927 12.375C3.96375 12.4917 4.02558 12.6 4.1125 12.7L8.1375 17.3C8.29791 17.4834 8.49829 17.575 8.73862 17.575C8.97896 17.575 9.18691 17.475 9.3625 17.275Z" fill="#038477"/>
</g>
</g>
<defs>
<filter id="filter0_d_4_56" x="-0.128174" y="6.42505" width="21.6282" height="19.15" filterUnits="userSpaceOnUse" color-interpolation-filters="sRGB">
<feFlood flood-opacity="0" result="BackgroundImageFix"/>
<feColorMatrix in="SourceAlpha" type="matrix" values="0 0 0 0 0 0 0 0 0 0 0 0 0 0 0 0 0 0 127 0" result="hardAlpha"/>
<feOffset dy="4"/>
<feGaussianBlur stdDeviation="2"/>
<feComposite in2="hardAlpha" operator="out"/>
<feColorMatrix type="matrix" values="0 0 0 0 0 0 0 0 0 0 0 0 0 0 0 0 0 0 0.25 0"/>
<feBlend mode="normal" in2="BackgroundImageFix" result="effect1_dropShadow_4_56"/>
<feBlend mode="normal" in="SourceGraphic" in2="effect1_dropShadow_4_56" result="shape"/>
</filter>
<clipPath id="clip0_4_56">
<rect width="21" height="24" fill="white" transform="matrix(-1 0 0 1 21 0)"/>
</clipPath>
</defs>
</svg>
