<svg width="238" height="238" viewBox="0 0 238 238" fill="none" xmlns="http://www.w3.org/2000/svg">
<mask id="mask0_1_151" style="mask-type:luminance" maskUnits="userSpaceOnUse" x="0" y="0" width="238" height="238">
<path d="M238 0H0V238H238V0Z" fill="white"/>
</mask>
<g mask="url(#mask0_1_151)">
<path d="M233.269 124.774H4.14548V116.551H233.269V124.774Z" fill="#A16C1C"/>
<path d="M4.14596 124.775H65.4657V116.552H4.14596V124.775ZM0 0H238V238H0V0ZM0 238H238V0H0V238Z" fill="black"/>
<path d="M66.449 124.775H61.1121L63.9072 227.805H66.449H68.9908L71.7859 124.775H66.449Z" fill="#A16C1C"/>
<path d="M63.9056 227.806H66.4474V126.99L61.1967 127.949L63.9056 227.806Z" fill="black"/>
<path d="M15.8875 124.775H10.5501L13.3456 227.805H15.8875H18.4284L21.2239 124.775H15.8875Z" fill="#A16C1C"/>
<path d="M13.3446 227.806H15.8864V126.99L10.6357 127.949L13.3446 227.806Z" fill="black"/>
<path d="M221.529 124.775H216.192L218.987 227.805H221.529H224.071L226.866 124.775H221.529Z" fill="#A16C1C"/>
<path d="M218.988 227.806H221.529V126.99L216.279 127.949L218.988 227.806Z" fill="black"/>
<path d="M170.968 124.775H165.631L168.426 227.805H170.968H173.51L176.305 124.775H170.968Z" fill="#A16C1C"/>
<path d="M168.427 227.806H170.968V126.99L165.718 127.949L168.427 227.806Z" fill="black"/>
<path d="M112.905 72.5435H58.3914C56.4345 72.5435 55.1693 74.1443 55.5796 76.1016L62.84 110.731C63.2504 112.687 65.1867 114.289 67.1436 114.289H121.657C123.614 114.289 124.88 112.687 124.469 110.731L117.209 76.1016C116.799 74.1443 114.862 72.5435 112.905 72.5435Z" fill="#2D2D2D"/>
<path d="M67.6478 112.316C66.3678 112.316 65.0079 111.182 64.7365 109.89L57.4766 75.26C57.3647 74.7264 57.4542 74.2471 57.7289 73.9092C57.9859 73.5921 58.4005 73.4174 58.8955 73.4174H113.409C114.689 73.4174 116.049 74.5513 116.321 75.8446L123.581 110.474C123.692 111.007 123.603 111.486 123.329 111.824C123.067 112.146 122.664 112.316 122.162 112.316H67.6478Z" fill="white"/>
<path d="M108.778 109.543L101.899 76.7328C101.726 75.9027 102.359 75.1225 103.207 75.1225H112.053C112.685 75.1225 113.231 75.5657 113.36 76.1849L120.239 108.995C120.413 109.825 119.779 110.604 118.931 110.604H110.086C109.453 110.604 108.907 110.162 108.778 109.543Z" fill="#737373"/>
<path d="M71.1245 77.9672C68.0181 77.9672 62.0167 77.9672 62.0167 77.9672L61.7182 76.5449C61.7182 76.5449 68.1742 76.5449 71.1602 76.5449" fill="#FF6666"/>
<path d="M85.8998 81.501C83.4361 81.501 67.0598 81.501 67.0598 81.501L66.7608 80.0777H85.9103C85.9103 80.0777 86.075 80.8631 86.1597 81.2673" fill="black"/>
<path d="M89.3747 85.0309C87.444 85.0309 68.068 85.0309 68.068 85.0309L67.7695 83.6086H89.2314C89.2314 83.6086 89.2452 83.6748 89.2671 83.7786" fill="black"/>
<path d="M80.7864 88.561C75.7351 88.561 69.0763 88.561 69.0763 88.561L68.7783 87.1378C68.7783 87.1378 76.6209 87.1378 81.7393 87.1378" fill="black"/>
<path d="M65.2209 93.7284C65.2165 93.7084 65.2122 93.6884 65.2083 93.6679Z" fill="#FF6666"/>
<path d="M72.7511 97.8169C71.4102 97.8169 70.3792 97.8169 70.3792 97.8169L70.0807 96.3937C70.0807 96.3937 71.0975 96.3937 72.4241 96.3937" fill="black"/>
<path d="M87.1643 97.8169C84.6715 97.8169 80.8173 97.8169 80.8173 97.8169L80.5184 96.3937C80.5184 96.3937 84.3431 96.3937 86.8373 96.3937" fill="black"/>
<path d="M78.5731 101.348C74.4538 101.348 71.3879 101.348 71.3879 101.348L71.0895 99.9247C71.0895 99.9247 75.661 99.9247 81.1402 99.9247" fill="black"/>
<path d="M88.7882 104.876C82.3641 104.876 72.3962 104.876 72.3962 104.876L72.0982 103.454C72.0982 103.454 86.2007 103.454 91.6675 103.454" fill="black"/>
<path d="M138.356 114.082H66.626C64.6692 114.082 63.4035 115.194 63.8138 116.552H142.66C142.25 115.194 140.313 114.082 138.356 114.082Z" fill="#2D2D2D"/>
<path d="M43.0567 63.789L36.1781 30.9793C36.0043 30.1491 36.6379 29.369 37.4861 29.369H93.1933C93.8255 29.369 94.371 29.8121 94.5009 30.4314L101.379 63.2411C101.553 64.0713 100.92 64.851 100.072 64.851H44.3648C43.7322 64.851 43.1862 64.4083 43.0567 63.789Z" fill="#313131"/>
<path d="M62.7261 29.8153C62.7917 30.1323 62.8584 30.4508 62.8584 30.4508H51.1654L50.9032 29.1922H62.5961C62.5961 29.1922 62.6608 29.503 62.7261 29.8153Z" fill="#FF6666"/>
<path d="M60.8954 32.1624C60.9306 32.3319 60.9563 32.4552 60.9563 32.4552H56.2629L56.0007 31.1966H60.694C60.694 31.1966 60.8178 31.7907 60.8954 32.1624Z" fill="#FF6666"/>
<path d="M68.6781 32.0382C68.7262 32.2681 68.7652 32.4552 68.7652 32.4552H61.5343L61.272 31.1966H68.5029C68.5029 31.1966 68.6019 31.6717 68.6781 32.0382Z" fill="#FF6666"/>
<path d="M71.75 33.656C71.8252 34.0172 71.9185 34.4647 71.9185 34.4647H56.6813L56.419 33.2066H71.6562C71.6562 33.2066 71.6991 33.4113 71.75 33.656Z" fill="#FF6666"/>
<path d="M69.8341 35.7779C69.9041 36.1125 69.9788 36.4714 69.9788 36.4714H57.0987L56.8364 35.2129H69.7165C69.7165 35.2129 69.7736 35.4861 69.8341 35.7779Z" fill="#FF6666"/>
<path d="M56.4369 55.0372C56.3408 55.0372 56.2894 55.0372 56.2894 55.0372L56.0276 53.7787C56.0276 53.7787 56.0633 53.7787 56.1309 53.7787" fill="#FF6666"/>
<path d="M62.2993 20.3809C62.3698 20.7203 62.4474 21.0915 62.4474 21.0915H49.2131L48.9509 19.834H62.1851C62.1851 19.834 62.2398 20.0962 62.2993 20.3809Z" fill="#FF6666"/>
<path d="M69.1417 26.6282C69.0679 26.2727 68.9798 25.8509 68.9798 25.8509H54.3895L54.6513 27.1095H69.2421C69.2421 27.1095 69.1955 26.8862 69.1417 26.6282Z" fill="#FF6666"/>
<path d="M66.1949 24.4991C66.1273 24.1764 66.0582 23.8446 66.0582 23.8446H53.9693L54.2315 25.1032H66.3205C66.3205 25.1032 66.2586 24.8052 66.1949 24.4991Z" fill="#FF6666"/>
<path d="M67.0155 22.5566C66.9446 22.2162 66.8665 21.8421 66.8665 21.8421H53.5518L53.8146 23.1006H67.1288C67.1288 23.1006 67.0745 22.8403 67.0155 22.5566Z" fill="#FF6666"/>
<path d="M62.1879 39.2215C62.2446 39.4933 62.295 39.7346 62.295 39.7346H53.1001L52.8379 38.4761H62.0328C62.0328 38.4761 62.1156 38.8735 62.1879 39.2215Z" fill="#FF6666"/>
<path d="M76.8776 45.1507C76.8101 44.8275 76.741 44.4948 76.741 44.4948H58.772L59.0338 45.7534H77.0028C77.0028 45.7534 77.0005 45.7429 76.9966 45.7238" fill="#FF6666"/>
<path d="M65.8859 42.9123C65.8369 42.6776 65.7969 42.4848 65.7969 42.4848H58.3528L58.615 43.7434H66.0592C66.0592 43.7434 65.9621 43.2769 65.8859 42.9123Z" fill="#FF6666"/>
<path d="M73.9654 42.907C73.9168 42.6747 73.8773 42.4848 73.8773 42.4848H66.4327L66.6954 43.7434H74.1396C74.1396 43.7434 74.0434 43.2816 73.9673 42.917" fill="#FF6666"/>
<path d="M74.5144 41.3439C74.4373 40.975 74.334 40.4785 74.334 40.4785H57.9363L58.1986 41.7366H74.5963C74.5963 41.7366 74.5601 41.5629 74.5144 41.3439Z" fill="#FF6666"/>
<path d="M67.9016 50.5136C64.105 50.5136 60.0281 50.5136 60.0281 50.5136L60.2904 51.7717C60.2904 51.7717 64.1759 51.7717 67.893 51.7717" fill="#FF6666"/>
<path d="M63.5475 48.5076C62.7012 48.5076 59.6086 48.5076 59.6086 48.5076L59.8709 49.7661H64.0216C64.0216 49.7661 63.9706 49.521 63.9135 49.2473" fill="#FF6666"/>
<path d="M69.1487 48.5074C67.4337 48.5074 64.3325 48.5074 64.3325 48.5074L64.5948 49.7659C64.5948 49.7659 68.5104 49.7659 69.9755 49.7659" fill="#FF6666"/>
<path d="M75.5882 46.5011H59.1904L59.4532 47.7596C59.4532 47.7596 72.3837 47.7596 75.2797 47.7596" fill="#FF6666"/>
<path d="M88.4336 45.8135C88.475 46.0115 88.5069 46.1639 88.5069 46.1639H82.6312L82.3684 44.9058H88.2447C88.2447 44.9058 88.356 45.4413 88.4336 45.8135Z" fill="#FF6666"/>
<path d="M98.1798 45.6579C98.236 45.9263 98.2855 46.1639 98.2855 46.1639H89.2324L88.9702 44.9058H98.0232C98.0232 44.9058 98.107 45.308 98.1798 45.6579Z" fill="#FF6666"/>
<path d="M101.918 47.1739C101.994 47.5428 102.125 48.1706 102.125 48.1706H83.0491L82.7868 46.9121H101.863C101.863 46.9121 101.886 47.0206 101.918 47.1739Z" fill="#FF6666"/>
<path d="M99.4172 49.3229C99.4938 49.6904 99.5948 50.1749 99.5948 50.1749H83.4698L83.207 48.9164H99.3325C99.3325 48.9164 99.3701 49.0978 99.4172 49.3229Z" fill="#FF6666"/>
<path d="M107.014 39.1377C106.936 38.765 106.815 38.1804 106.815 38.1804H88.5481L88.8099 39.439H107.077C107.077 39.439 107.05 39.3114 107.014 39.1377Z" fill="#FF6666"/>
<path d="M103.431 36.978C103.356 36.6171 103.263 36.174 103.263 36.174H88.1279L88.3902 37.433H103.526C103.526 37.433 103.482 37.225 103.431 36.978Z" fill="#FF6666"/>
<path d="M100.71 35.0504C100.633 34.6801 100.527 34.1717 100.527 34.1717H83.8576L84.1204 35.4303H100.789C100.789 35.4303 100.755 35.2632 100.71 35.0504Z" fill="#FF6666"/>
<path d="M103.981 58.2003C97.6082 58.2003 85.1417 58.2003 85.1417 58.2003L85.404 59.4588C85.404 59.4588 96.5495 59.4588 103.151 59.4588" fill="#FF6666"/>
<path d="M94.0839 56.391C94.0596 56.2739 94.0434 56.1959 94.0434 56.1959H84.7233L84.9856 57.4544H94.3057C94.3057 57.4544 94.2667 57.2683 94.2191 57.0389" fill="#FF6666"/>
<path d="M103.744 56.1959C101.938 56.1959 94.8374 56.1959 94.8374 56.1959L95.0997 57.4544C95.0997 57.4544 102.911 57.4544 104.231 57.4544" fill="#FF6666"/>
<path d="M105.054 55.2407C104.98 54.8846 104.834 54.1859 104.834 54.1859H84.305L84.5673 55.4444H105.097C105.097 55.4444 105.082 55.374 105.06 55.2664" fill="#FF6666"/>
<path d="M86.4489 64.4738C86.4574 64.5157 86.4669 64.5614 86.4769 64.609Z" fill="#FF6666"/>
<path d="M88.5075 62.2128C87.2313 62.2128 85.9775 62.2128 85.9775 62.2128L86.2398 63.4709C86.2398 63.4709 87.9487 63.4709 89.4066 63.4709" fill="#FF6666"/>
<path d="M92.0576 63.016C92.062 63.0368 92.0663 63.0575 92.0706 63.0782Z" fill="#FF6666"/>
<path d="M91.1516 60.2084C87.9772 60.2084 85.561 60.2084 85.561 60.2084L85.8233 61.4669C85.8233 61.4669 87.7958 61.4669 90.5176 61.4669" fill="#FF6666"/>
<path d="M51.5685 66.5246C51.4962 66.1762 51.4129 65.7773 51.4129 65.7773H37.4294L37.6917 67.0358H51.6752C51.6752 67.0358 51.6252 66.7955 51.5685 66.5246Z" fill="#FF6666"/>
<path d="M47.3943 64.3327C47.3334 64.0405 47.2762 63.7673 47.2762 63.7673H37.0118L37.2736 65.0258H47.5385C47.5385 65.0258 47.4638 64.6669 47.3943 64.3327Z" fill="#FF6666"/>
<path d="M58.3872 64.3329C58.3262 64.0406 58.2691 63.7674 58.2691 63.7674H48.0046L48.2669 65.026H58.5314C58.5314 65.026 58.4566 64.6671 58.3872 64.3329Z" fill="#FF6666"/>
<path d="M57.3447 62.8305C57.2709 62.4787 57.1219 61.7628 57.1219 61.7628H36.5925L36.8548 63.0214H57.3842C57.3842 63.0214 57.3685 62.9452 57.3447 62.8305Z" fill="#FF6666"/>
<path d="M214.176 103.456H205.519L206.527 116.554H213.167L214.176 103.456Z" fill="#FF6666"/>
<path d="M214.176 103.456H205.519L206.527 116.554H213.167L214.176 103.456Z" fill="black"/>
<path d="M25.4716 94.3576H37.919L33.6697 116.553H21.2218L25.4716 94.3576Z" fill="#2D2D2D"/>
<path d="M41.3276 88.4077H23.7451L28.666 116.553H46.2485L41.3276 88.4077Z" fill="#A26C1C"/>
<path d="M22.7057 88.4077H23.7458L28.6662 116.553H27.6266L22.7057 88.4077Z" fill="#FF6666"/>
<path d="M22.7057 88.4077H23.7458L28.6662 116.553H27.6266L22.7057 88.4077Z" fill="black"/>
<path d="M31.1929 113.543L27.3244 91.4143H38.7989L42.6678 113.543H31.1929Z" fill="white"/>
<path d="M42.1233 113.543L38.2548 91.4143H38.7994L42.6683 113.543H42.1233Z" fill="#A26C1C"/>
<path d="M127.626 53.7777C127.912 54.3005 127.867 54.875 127.525 55.0621C127.183 55.2487 126.675 54.9765 126.389 54.4538C126.104 53.9315 126.149 53.3564 126.491 53.1698C126.832 52.9833 127.34 53.2549 127.626 53.7777Z" fill="#2D2D2D"/>
<path d="M127.914 54.8476C127.914 54.8476 128.373 58.5111 127.861 60.6809C129.257 61.038 130.613 59.7847 130.613 59.7847L127.914 54.8476Z" fill="#DFB395"/>
<path d="M127.394 49.3529C127.342 49.4012 127.275 49.4344 127.199 49.4437C125.668 49.633 125.089 50.751 125.065 50.7989C124.978 50.9717 124.769 51.042 124.597 50.9567C124.424 50.871 124.353 50.663 124.437 50.4904C124.468 50.4292 125.193 48.9864 127.114 48.7491C127.305 48.7258 127.48 48.8615 127.503 49.0536C127.518 49.1695 127.474 49.2788 127.394 49.3529Z" fill="#2D2D2D"/>
<path d="M147.388 51.6344C149.951 58.697 152.645 64.1369 155.696 67.1241C155.696 67.1241 156.128 72.7818 146.664 76.122C136.258 79.7947 139.868 72.7115 139.868 72.7115C145.068 69.3503 144.233 64.8642 140.067 63.4152L147.388 51.6344Z" fill="#DFB395"/>
<path d="M144.446 43.1427C147.56 49.7752 149.72 53.4987 148.28 58.5641C146.113 66.1835 136.586 67.5754 131.553 62.0078C127.023 56.9957 122.691 46.9919 127.576 41.0042C132.388 35.1044 141.332 36.5107 144.446 43.1427Z" fill="#DFB395"/>
<path d="M132.197 54.2125C131.19 55.7696 130.423 56.9465 130.423 56.9465C130.423 56.9465 127.776 51.4672 128.471 48.8272C127.219 46.7134 125.209 50.0863 124.082 45.8827C122.955 41.6795 126.283 36.8598 127.597 35.8212C127.812 36.1236 127.883 37.3372 127.883 37.3372C127.883 37.3372 133.001 32.1201 140.797 32.2796C140.3 32.8477 140.19 34.3111 140.19 34.3111C140.19 34.3111 148.269 35.1452 150.386 39.52C149.206 39.0449 148.327 38.9451 148.327 38.9451C148.327 38.9451 150.805 41.631 150.429 46.0544C150.053 50.4778 150.062 55.3343 150.269 57.2382C150.476 59.1416 145.476 63.1467 142.019 59.4565C138.561 55.7662 132.197 54.2125 132.197 54.2125Z" fill="#2D2D2D"/>
<path d="M135.431 52.5238C136.004 54.1593 135.892 55.9711 135.413 57.3263C134.69 59.3642 132.907 59.0303 131.916 57.3312C131.024 55.8016 130.324 52.8983 131.622 51.398C132.901 49.9196 134.776 50.6538 135.431 52.5238Z" fill="#DFB395"/>
<path d="M157.773 66.2219C157.581 63.5816 157.335 60.5742 155.706 60.498C153.914 60.4138 143.531 65.0534 141.311 68.3254C139.092 71.5969 143.424 74.7995 143.424 74.7995L157.773 66.2219Z" fill="#2D2D2D"/>
<path d="M136.335 106.71L127.366 106.414L127.525 113.926C127.525 113.926 135.351 113.12 135.695 111.064L136.335 106.71Z" fill="#DFB395"/>
<path d="M122.626 110.1L121.686 113.942L127.526 113.926L127.367 106.414L122.626 110.1Z" fill="#DFB395"/>
<path d="M172.338 75.486L172.151 77.4129C172.09 78.0331 172.004 78.6438 171.925 79.2564C171.767 80.4797 171.575 81.6959 171.365 82.9116C170.959 85.3449 170.432 87.7649 169.831 90.2006C169.199 92.6277 168.503 95.0749 167.589 97.5334C167.123 98.7672 166.639 100 166.056 101.257C165.477 102.514 164.849 103.776 164.031 105.067C163.844 105.384 163.616 105.714 163.396 106.04C163.18 106.363 162.955 106.688 162.692 107.022C162.433 107.354 162.205 107.674 161.898 108.013L161.459 108.512C161.316 108.674 161.17 108.838 160.959 109.035C159.396 110.575 157.792 111.504 156.289 112.176C153.281 113.497 150.552 114.002 147.906 114.299C146.589 114.455 145.289 114.516 144.009 114.544C142.73 114.58 141.465 114.551 140.211 114.48C138.959 114.424 137.715 114.302 136.48 114.158C135.228 114.003 134.048 113.814 132.734 113.549L132.95 106.503C137.28 105.643 141.813 104.759 145.697 103.464C146.671 103.151 147.596 102.789 148.436 102.411C149.278 102.046 150.038 101.64 150.609 101.237C151.176 100.833 151.545 100.443 151.59 100.279L151.789 99.9691C151.869 99.8687 151.954 99.6925 152.04 99.5531C152.128 99.4169 152.215 99.2489 152.303 99.0728C152.392 98.9009 152.484 98.741 152.569 98.5411C153.276 97.0426 153.966 95.1596 154.518 93.1913C155.069 91.2078 155.593 89.1344 156.012 87.0033C156.469 84.8832 156.832 82.7089 157.204 80.5302L157.717 77.252L158.178 74.0609L172.338 75.486Z" fill="#FF6666"/>
<path d="M172.338 75.486L172.151 77.4129C172.09 78.0331 172.004 78.6438 171.925 79.2564C171.767 80.4797 171.575 81.6959 171.365 82.9116C170.959 85.3449 170.432 87.7649 169.831 90.2006C169.199 92.6277 168.503 95.0749 167.589 97.5334C167.123 98.7672 166.639 100 166.056 101.257C165.477 102.514 164.849 103.776 164.031 105.067C163.844 105.384 163.616 105.714 163.396 106.04C163.18 106.363 162.955 106.688 162.692 107.022C162.433 107.354 162.205 107.674 161.898 108.013L161.459 108.512C161.316 108.674 161.17 108.838 160.959 109.035C159.396 110.575 157.792 111.504 156.289 112.176C153.281 113.497 150.552 114.002 147.906 114.299C146.589 114.455 145.289 114.516 144.009 114.544C142.73 114.58 141.465 114.551 140.211 114.48C138.959 114.424 137.715 114.302 136.48 114.158C135.228 114.003 134.048 113.814 132.734 113.549L132.95 106.503C137.28 105.643 141.813 104.759 145.697 103.464C146.671 103.151 147.596 102.789 148.436 102.411C149.278 102.046 150.038 101.64 150.609 101.237C151.176 100.833 151.545 100.443 151.59 100.279L151.789 99.9691C151.869 99.8687 151.954 99.6925 152.04 99.5531C152.128 99.4169 152.215 99.2489 152.303 99.0728C152.392 98.9009 152.484 98.741 152.569 98.5411C153.276 97.0426 153.966 95.1596 154.518 93.1913C155.069 91.2078 155.593 89.1344 156.012 87.0033C156.469 84.8832 156.832 82.7089 157.204 80.5302L157.717 77.252L158.178 74.0609L172.338 75.486Z" fill="black"/>
<path d="M132.694 84.771C134.865 93.7954 137.67 108.925 138.312 128.705H177.8C178.019 123.824 177.193 96.3596 173.219 76.4686C171.708 68.9054 164.289 64.0131 156.764 65.7029C156.701 65.7171 156.638 65.7314 156.575 65.7457C151.65 66.8686 144.571 68.6769 140.407 70.2601C140.351 70.2815 140.295 70.3025 140.238 70.3244C134.453 72.5468 131.244 78.7457 132.694 84.771Z" fill="#A42828"/>
<path d="M135.023 95.804C135.602 97.6081 136.108 100.911 136.178 103.416C139.409 100.043 140.434 89.7112 140.434 89.7112L135.023 95.804Z" fill="black"/>
<path d="M98.3802 101.082L89.6922 98.8375L88.2092 106.204C88.2092 106.204 92.513 108.427 96.8072 105.192L98.3802 101.082Z" fill="#DFB395"/>
<path d="M85.1071 100.345L81.4481 104.982L88.2097 106.203L89.6921 98.8378L85.1071 100.345Z" fill="#DFB395"/>
<path d="M147.021 82.3526C146.218 83.4231 145.509 84.3641 144.725 85.332C143.956 86.2902 143.184 87.2436 142.387 88.1748C140.804 90.0479 139.173 91.8812 137.481 93.677C134.095 97.2689 130.521 100.734 126.464 103.957C124.444 105.58 122.268 107.117 119.794 108.529C119.495 108.709 119.155 108.876 118.837 109.049C118.506 109.221 118.232 109.382 117.757 109.581C117.326 109.778 116.897 109.948 116.472 110.092C116.043 110.251 115.626 110.375 115.204 110.486C113.518 110.922 111.916 111.099 110.397 111.141C107.355 111.186 104.613 110.703 102.029 109.989C100.744 109.602 99.4908 109.195 98.28 108.681C97.672 108.435 97.0736 108.169 96.4824 107.878C95.8721 107.593 95.3429 107.292 94.6672 106.928L96.8734 100.233C101.145 100.337 105.781 100.336 109.124 99.4295C109.955 99.2222 110.687 98.9421 111.243 98.625C111.521 98.4715 111.776 98.3299 111.961 98.1705C112.022 98.1196 112.252 97.9715 112.435 97.8518C112.625 97.7227 112.81 97.6166 113.006 97.4701C114.55 96.3896 116.145 95.0559 117.728 93.62C120.884 90.7249 123.963 87.4408 126.961 84.0623C128.461 82.3721 129.939 80.6425 131.41 78.9066L133.596 76.2886L135.71 73.7149L147.021 82.3526Z" fill="#A42828"/>
<path d="M136.672 222.101H129.289L125.578 205.004H132.961L136.672 222.101Z" fill="#DFB395"/>
<path d="M128.879 220.519H137.173C137.475 220.519 137.736 220.728 137.802 221.023L139.26 227.585C139.412 228.265 138.877 228.91 138.179 228.898C135.284 228.848 133.877 228.679 130.229 228.679C127.985 228.679 125.106 228.911 122.006 228.911C118.976 228.911 118.503 225.847 119.772 225.57C125.46 224.326 125.86 222.61 127.681 220.973C128.009 220.677 128.438 220.519 128.879 220.519Z" fill="#2D2D2D"/>
<path d="M132.962 205.011H125.576L127.635 214.478L134.878 213.824L132.962 205.011Z" fill="black"/>
<path d="M150.147 128.702C150.147 128.702 115.862 141.132 114.852 157.584C112.99 187.883 125.384 211.871 125.384 211.871L136.74 210.658C136.74 210.658 134.721 200.905 133.212 173.456C131.316 138.964 189.856 174.264 177.8 128.702H150.147Z" fill="#FF6666"/>
<path d="M150.147 128.702C150.147 128.702 115.862 141.132 114.852 157.584C112.99 187.883 125.384 211.872 125.384 211.872L136.74 210.658C136.74 210.658 134.721 200.906 133.212 173.456C131.316 138.965 189.856 174.264 177.8 128.702L150.147 128.702Z" fill="black"/>
<path d="M122.237 207.692C122.184 207.698 124.044 212.733 124.044 212.733L138.225 211.345L137.513 206.758L122.237 207.692Z" fill="#FF6666"/>
<path d="M104.778 227.437H97.3946L95.2383 210.34H102.621L104.778 227.437Z" fill="#DFB395"/>
<path d="M97.3369 225.015L105.399 225.005C105.701 225.005 105.963 225.214 106.029 225.508L107.496 232.068C107.648 232.748 107.132 233.394 106.436 233.382C103.527 233.337 99.3242 233.173 95.669 233.177C91.395 233.183 90.5753 233.418 85.563 233.425C82.5323 233.43 81.687 230.366 82.955 230.087C88.7289 228.816 90.5725 228.678 95.5595 225.594C96.1012 225.259 96.6995 225.016 97.3369 225.015Z" fill="#2D2D2D"/>
<path d="M95.2402 210.347L96.4135 219.659L103.737 219.161L102.626 210.347H95.2402Z" fill="black"/>
<path d="M138.312 128.702C138.312 128.702 82.1307 133.685 82.7371 161.899C83.3678 191.246 94.3306 211.04 94.3306 211.04H105.3C105.3 211.04 103.221 195.816 103.59 166.924C103.701 158.268 121.19 155.408 138.272 154.398C153.027 153.526 166.838 145.115 172.57 131.491L173.744 128.702H138.312Z" fill="#FF6666"/>
<path d="M138.312 128.702C138.312 128.702 82.1307 133.685 82.7371 161.899C83.3678 191.246 94.331 211.04 94.331 211.04H105.3C105.3 211.04 103.221 195.816 103.59 166.924C103.701 158.268 121.19 155.408 138.272 154.398C153.027 153.526 166.839 145.115 172.571 131.491L173.744 128.702H138.312Z" fill="black"/>
<path d="M91.764 208.094C91.7141 208.098 93.6442 213.165 93.6442 213.165L106.885 212.219L106.114 207.628L91.764 208.094Z" fill="#FF6666"/>
<path d="M153.053 96.9894L145.927 124.458C144.109 131.464 143.187 138.715 143.187 146.001V158.769C143.187 161.993 145.564 164.607 148.495 164.607H185.037C187.969 164.607 190.345 161.993 190.345 158.769V146.001C190.345 138.715 191.267 131.464 193.085 124.458L199.38 100.192C200.347 96.4639 197.801 92.7544 194.276 92.7544H158.157C155.787 92.7544 153.703 94.4823 153.053 96.9894Z" fill="#2D2D2D"/>
<path d="M107.61 151.309L108.807 158.121C109.436 161.704 112.588 164.609 115.846 164.609H156.465C159.723 164.609 161.854 161.703 161.225 158.121L160.029 151.309C159.313 147.232 155.726 143.926 152.019 143.926H113.027C109.319 143.926 106.895 147.232 107.61 151.309Z" fill="#2D2D2D"/>
<path d="M160.373 171.449H139.096L137.019 164.608H162.451L160.373 171.449Z" fill="#261905"/>
<path d="M153.534 222.307H145.931V172.672L153.534 173.446V222.307Z" fill="#E4E4E4"/>
<path d="M151.681 222.306H149.865V173.07L151.681 173.255V222.306Z" fill="black"/>
<path d="M167.214 230.163H132.254C131.319 230.163 130.927 228.968 131.682 228.415L137.231 224.346C139.894 222.394 143.111 221.341 146.414 221.341H153.054C156.356 221.341 159.573 222.394 162.236 224.346L167.786 228.415C168.54 228.968 168.149 230.163 167.214 230.163Z" fill="#261905"/>
</g>
</svg>
